<?xml version="1.0" encoding="utf-8"?>
<!-- Generator: Adobe Illustrator 19.0.0, SVG Export Plug-In . SVG Version: 6.00 Build 0)  -->
<svg version="1.1" id="Layer_1" xmlns="http://www.w3.org/2000/svg" xmlns:xlink="http://www.w3.org/1999/xlink" x="0px" y="0px"
	 viewBox="0 123.6 594.3 594.3" style="enable-background:new 0 123.6 594.3 594.3;" xml:space="preserve">
<style type="text/css">
	.st0{fill:#FFFFFF;}
</style>
<g>
	<path class="st0" d="M140.1,397.2h-5.8c-0.1-5.3-0.3-9-0.7-11.2c-1.4-2-3.9-3.8-7.3-5.3c-3.5-1.6-7.4-2.3-11.7-2.3
		c-6.2,0-11,1.6-14.4,4.7s-5.1,6.8-5.1,11c0,3,0.5,5.5,1.5,7.3c1,1.9,2.3,3.4,4.1,4.5s4.4,2.1,7.9,3c2.6,0.5,6.3,1.2,11,2.1
		c4.7,0.8,7.8,1.4,9.2,1.7c3.7,1,6.7,2.1,9,3.5c2.3,1.3,4.1,2.9,5.4,4.7c1.3,1.8,2.5,4,3.3,6.6c0.9,2.7,1.3,5.7,1.3,9
		c0,5.8-1.2,11-3.6,15.4c-1.8,3.3-4.4,6.4-7.6,9.1c-3.2,2.8-6.6,4.8-10,6.2c-5.5,2.2-12.1,3.3-19.7,3.3c-5.6,0-10.6-0.5-15-1.6
		c-4.4-1-9.2-2.9-14.5-5.4c1.4-5.2,2.1-13.1,2.2-23.8h5.8c-0.1,3.3,0.2,7.4,0.8,12.3c1.7,2.8,4.7,5.3,8.9,7.5s8.8,3.2,13.8,3.2
		c4.3,0,8.2-0.8,11.6-2.3c3.4-1.5,5.9-3.6,7.4-6.3c1.5-2.7,2.3-5.8,2.3-9.2c0-2.9-0.5-5.4-1.6-7.4c-1.1-2.1-2.8-3.7-5-4.9
		c-2.3-1.2-6.3-2.5-12.1-3.8c-8.3-1.7-13.7-3-16.3-3.8c-3.9-1.2-7.1-2.9-9.5-5.1s-4.2-4.9-5.4-8.1s-1.8-6.6-1.8-10.2
		c0-5.1,1.1-9.8,3.2-14.1c2.1-4.3,5-7.7,8.5-10c3.5-2.4,7.5-4.1,11.9-5.1s9-1.5,13.6-1.5c4.8,0,9.5,0.4,14.1,1.3
		c4.5,0.9,8.5,2.1,11.8,3.8l0.5,1.6c-0.6,3-1.1,5.9-1.4,8.7C140.5,388.8,140.3,392.5,140.1,397.2z"/>
	<path class="st0" d="M261.8,461.9v6c-6.6-0.2-12.3-0.3-17.1-0.3c-3.7,0-7.3,0.1-10.7,0.3c-1.1-2.3-2.9-4.9-5.4-7.8l-13.4-15.3
		c-10-11.8-15.4-18.1-16-18.7c-1.7-1.9-3-3.1-3.9-3.5c-0.6-0.3-1.2-0.5-1.6-0.5s-0.7,0.1-1,0.3c-0.2,0.1-0.4,0.3-0.4,0.5
		c-0.1,0.2-0.1,0.7-0.1,1.6v15.4l0.2,13.5c0,3.6,0.3,5.8,0.9,6.7c0.3,0.5,0.9,0.9,1.8,1.2c0.9,0.3,3.9,0.6,9,0.8v6
		c-7.5-0.3-15.4-0.5-23.7-0.5c-7.4,0-14,0.2-19.8,0.5v-6c4.7-0.2,7.8-0.5,9.2-1c0.5-0.2,0.9-0.5,1.3-0.9c0.3-0.4,0.6-1,0.8-1.9
		c0.2-0.8,0.4-2.7,0.5-5.4c0.4-6.8,0.6-11.6,0.6-14.6v-24.8l-0.5-21.2c-0.1-5.2-0.3-8.6-0.6-10.3c-0.2-1-0.5-1.7-0.8-2
		s-0.8-0.6-1.4-0.8c-1-0.3-4-0.5-9.1-0.8v-6c5.8,0.3,12.4,0.5,19.9,0.5c8.3,0,16.2-0.2,23.6-0.5v6c-5.3,0.1-8.5,0.5-9.7,1.1
		c-0.7,0.4-1.2,1.3-1.4,2.6c-0.5,3-0.8,8.6-0.8,16.9v18.9l1.1,0.5c4.3-3.4,10.2-9,17.7-16.7l9.7-9.9c3.2-3.2,5.4-5.6,6.6-7l6-7.1
		c0-1,0-2.7-0.2-5.3c4.6,0.1,7.7,0.1,9.3,0.1l16.1-0.1v6c-4.3,0.1-7.4,0.4-9.3,1s-4.3,1.9-7.1,4.1c-2.8,2.2-8.7,7.2-17.5,14.9
		l-12.9,12.9c2.2,2.7,5.5,6.6,9.8,11.7l15,17.6c6.9,8.1,11.6,13.5,14.1,16.1s4.3,4.2,5.4,4.7C257.1,461.6,259,461.9,261.8,461.9z"/>
	<path class="st0" d="M272.4,467.9v-3.7c2.7-1.3,5-2.6,6.7-4c0.3-1.9,0.5-5,0.7-9.3c0.4-7.9,0.5-13.6,0.5-17.1v-30.7
		c0-1.2-0.1-5.6-0.2-13.4c-0.1-5.2-0.5-8.3-1-9.5c-0.2-0.5-0.6-0.8-1-1c-1.2-0.5-4.5-1-9.9-1.2v-5.3l15.9-0.1c3.2,0,6.2,0,9,0
		c6.3,0,13.2-0.1,20.9-0.2l13.9-0.3c1.6,0,5,0.1,10,0.3c0.5,0,1.2,0.1,2.3,0.4l0.5,0.9l-1.3,9.9c0,0.7-0.3,4-0.7,9.9h-5.3
		c-0.1-5.4-0.3-8.7-0.6-9.9c-0.2-0.6-0.5-1.1-0.8-1.4c-0.6-0.4-2.4-0.8-5.5-1.1c-4.5-0.5-8.9-0.8-13.3-0.8c-4.1,0-8.2,0.2-12.4,0.5
		c-0.6,5.2-1,11.8-1,19.8v14c3.1,0.2,6.3,0.3,9.7,0.3c1,0,4.8-0.1,11.3-0.3c2.5,0,3.9-0.2,4.3-0.5s0.8-0.8,1-1.4
		c0.5-1.7,0.9-4.6,1-8.7h5.5l-0.4,15.1l0.3,15H327c0-5.3-0.3-8.6-1-9.8c-0.6-0.9-1.5-1.5-3-1.7c-3.2-0.5-7.3-0.8-12.2-0.8
		c-4.5,0-8.2,0.2-11.1,0.5V451c0,3.2,0.1,6,0.2,8.3c3.7,0.3,8.1,0.5,13.1,0.5c4.9,0,9.5-0.2,13.6-0.5c4.2-0.3,6.7-0.8,7.7-1.4
		c0.3-0.2,0.6-0.6,0.9-1.2c0.8-2.2,1.7-6.3,2.6-12.5h5.6c-1,9-1.5,16.5-1.5,22.3l-0.9,0.9c-2.9,0.3-7.1,0.5-12.5,0.5l-11-0.2
		c-10.9-0.2-18.4-0.2-22.5-0.2C294.2,467.4,286.6,467.6,272.4,467.9z"/>
	<path class="st0" d="M399.6,372.3v6c-4.6,0.1-7.4,0.3-8.3,0.5c-0.9,0.2-1.5,0.5-1.9,0.8s-0.6,0.7-0.8,1.1c-0.3,0.8-0.6,2.3-0.7,4.5
		c-0.1,1.2-0.2,3.4-0.2,6.7c-0.2,11.2-0.3,17.3-0.3,18.2v27.6l0.2,12.5c0,4.7,0.2,7.8,0.7,9.2c0.2,0.6,0.5,1.1,0.9,1.5
		s1.1,0.6,2.1,0.8c0.9,0.2,3.7,0.4,8.2,0.4v6c-7.4-0.3-15.4-0.5-23.8-0.5c-7.4,0-13.9,0.2-19.7,0.5v-6c4.7-0.2,7.5-0.3,8.2-0.5
		c1-0.2,1.6-0.4,2-0.8c0.3-0.3,0.6-0.7,0.7-1.1c0.1-0.5,0.3-2.7,0.5-6.4c0.4-5.5,0.5-10.5,0.5-15.2v-28.6c0-9.1,0-14.9-0.1-17.5
		c-0.2-5.8-0.5-9.4-0.8-10.9c-0.1-0.6-0.4-1-0.7-1.4c-0.3-0.3-0.8-0.6-1.6-0.8c-0.8-0.2-3.7-0.4-8.7-0.6v-6
		c5.8,0.3,12.4,0.5,19.8,0.5C384.3,372.8,392.2,372.6,399.6,372.3z"/>
	<path class="st0" d="M409.5,462.1c5.4-0.3,8.5-0.5,9.2-0.8c0.5-0.2,0.9-0.5,1.3-0.9c0.3-0.4,0.6-1.3,0.9-2.5
		c0.3-1.7,0.6-5.9,1-12.6c0.2-3.8,0.3-8.7,0.3-14.8v-22l-0.3-19.9c0-3.3-0.2-5.5-0.4-6.5s-0.6-1.7-1-2.2s-1.1-0.9-2.1-1.1
		c-1-0.3-3.9-0.6-8.7-0.9v-5.8c5.8,0.3,10.1,0.5,12.8,0.5l9.9-0.2l6.3-0.2c9.4,12.3,20.8,26.4,34.1,42.4c9.6,11.6,17.6,20.6,24,27.1
		v-15.6c0-24.6-0.3-38.9-0.8-43.3c-0.2-1.7-0.6-2.8-1.2-3.3c-1.1-0.8-4.6-1.3-10.7-1.4v-5.8c5.6,0.3,10.7,0.5,15.3,0.5
		c4.5,0,10.3-0.2,17.5-0.5v5.8c-5.6,0.1-8.9,0.5-9.9,1.2c-0.4,0.2-0.6,0.6-0.8,1c-0.7,2.3-1.1,7.5-1.3,15.7s-0.3,14.2-0.3,18
		c0,30.3,0.3,48.7,0.9,55.2l-0.9,0.6c-3.8-0.6-7.7-1.2-11.7-1.8c-14.7-16.5-35.6-41.1-62.6-74.1v34c0,7.1,0.2,14.5,0.5,22.1
		c0.2,5.3,0.5,8.5,0.8,9.7c0.2,0.5,0.5,1,0.9,1.3s1.2,0.6,2.3,0.7c3,0.4,5.1,0.5,6.5,0.5c0.3,0,0.7,0,1.4-0.1v5.5
		c-8.7-0.1-13.6-0.2-14.8-0.2c-4.4,0-10.5,0.2-18.1,0.5L409.5,462.1L409.5,462.1z"/>
</g>
</svg>
