<?xml version="1.0" encoding="utf-8"?>
<!-- Generator: Adobe Illustrator 19.0.0, SVG Export Plug-In . SVG Version: 6.00 Build 0)  -->
<svg version="1.1" id="Layer_1" xmlns="http://www.w3.org/2000/svg" xmlns:xlink="http://www.w3.org/1999/xlink" x="0px" y="0px"
	 viewBox="-168 272 273.7 250" style="enable-background:new -168 272 273.7 250;" xml:space="preserve">
<style type="text/css">
	.st0{fill:#01354D;}
	.st1{fill:#2BD179;}
	.st2{fill:#FFB471;}
	.st3{fill:#FFFB6E;}
	.st4{fill:#E0E0D1;}
</style>
<g>
	<polygon class="st0" points="69.9,437.9 -132.2,486.9 -78.4,307.1 	"/>
	<g>
		<g>
			<path class="st1" d="M-43.9,418.2c-1.2,3.9,0.9,26.1,0.9,26.1c0,2.6,2.4,3.2,5.2-0.7l9.5-14.5c5.1-7.9,6-9.6,1.5-17.8l-6.4-8.9
				c-2.2-3.1-5-2.3-6.2,1.6L-43.9,418.2z"/>
		</g>
		<g>
			<path class="st1" d="M-56.6,414.3c-1.2,3.9-15.4,21.1-15.4,21.1c-1.5,2.1-3.7,1.3-3.9-3.5l0.2-17.3c0.2-9.4,0.4-11.3,8.7-15.6
				l10.3-3.8c3.6-1.3,5.4,0.9,4.2,4.8L-56.6,414.3z"/>
		</g>
		<g>
			<path class="st2" d="M-61.9,427.5c3.9-12.8,12.4-14,12.4-14s6.3,5.7,2.4,18.6s-14.3,26.1-15.9,25.7
				C-64.8,457.1-65.9,440.3-61.9,427.5z"/>
		</g>
		<g>
			<path class="st3" d="M-58.7,416.8c3.9-12.8,12.4-14,12.4-14s6.3,5.7,2.4,18.6c-3.9,12.8-14.3,26.1-15.9,25.7
				C-61.4,446.4-62.6,429.6-58.7,416.8z"/>
		</g>
		<g>
			<path class="st4" d="M-27.1,403.8c-6.1,19.7-27.7,26.7-27.7,26.7s-14-17.9-8-37.7s24.8-31.5,28.8-30.3
				C-30.2,363.8-21,384-27.1,403.8z"/>
		</g>
		<g>
			<path class="st1" d="M-55.7,440c-0.6,2-0.9,3.6-2.9,3l0,0c-2-0.6-1.3-2.2-0.7-4.1l5.2-29.7c0.6-2,5.6-6.1,7.6-5.5l0,0
				c2,0.6,3.7,6.8,3.2,8.8L-55.7,440z"/>
		</g>
		<g>
			<circle class="st0" cx="-42.5" cy="391" r="7.5"/>
		</g>
		<g>
			<circle class="st0" cx="-38" cy="376.7" r="3.7"/>
		</g>
	</g>
	<circle class="st3" cx="-98.5" cy="405.5" r="1.7"/>
	<circle class="st3" cx="-15.5" cy="376.3" r="1.7"/>
	<circle class="st3" cx="-97.9" cy="449.3" r="1.7"/>
	<circle class="st3" cx="-11.3" cy="441.9" r="1.7"/>
	<circle class="st3" cx="-106.7" cy="433.2" r="0.9"/>
	<circle class="st3" cx="-47.5" cy="360.6" r="0.9"/>
	<circle class="st3" cx="-29.1" cy="448.5" r="0.9"/>
	<circle class="st3" cx="-87.3" cy="414.6" r="0.9"/>
	<circle class="st3" cx="-9.9" cy="402.6" r="0.9"/>
	<circle class="st3" cx="-65.6" cy="339.4" r="1.7"/>
	<circle class="st3" cx="14.7" cy="403.3" r="1.7"/>
	<circle class="st3" cx="16.6" cy="430.5" r="1.7"/>
	<circle class="st3" cx="-90.1" cy="374.1" r="0.9"/>
	<circle class="st3" cx="1.7" cy="423.7" r="0.9"/>
	<circle class="st3" cx="-76.7" cy="324" r="0.9"/>
	<circle class="st3" cx="44.7" cy="430.5" r="0.9"/>
	<circle class="st3" cx="-115.1" cy="474.4" r="0.9"/>
	<circle class="st3" cx="-78.7" cy="466.3" r="1.7"/>
	<circle class="st3" cx="-73.5" cy="374.9" r="0.9"/>
</g>
</svg>
