<?xml version="1.0" encoding="utf-8"?>
<!-- Generator: Adobe Illustrator 19.0.0, SVG Export Plug-In . SVG Version: 6.00 Build 0)  -->
<svg version="1.1" id="Layer_1" xmlns="http://www.w3.org/2000/svg" xmlns:xlink="http://www.w3.org/1999/xlink" x="0px" y="0px"
	 viewBox="-168 272 273.7 250" style="enable-background:new -168 272 273.7 250;" xml:space="preserve">
<style type="text/css">
	.st0{fill:#01354D;}
	.st1{fill:#FFFB6E;}
	.st2{opacity:0.2;}
	.st3{fill:#231F20;}
	.st4{fill:#2BD179;}
	.st5{opacity:0.2;fill:#231F20;}
	.st6{fill:#E0E0D1;}
	.st7{fill:#FFFFFF;}
</style>
<g>
	<polygon class="st0" points="63,456.8 -125.3,466.3 1.3,327.7 	"/>
	<circle class="st1" cx="-97.6" cy="455" r="1.7"/>
	<circle class="st1" cx="-23.2" cy="375.6" r="1.7"/>
	<circle class="st1" cx="-73.1" cy="451.1" r="1.7"/>
	<circle class="st1" cx="13.7" cy="448.6" r="1.7"/>
	<circle class="st1" cx="-80.9" cy="434.5" r="0.9"/>
	<circle class="st1" cx="-29.6" cy="401.7" r="0.9"/>
	<circle class="st1" cx="-45.3" cy="446.6" r="0.9"/>
	<circle class="st1" cx="-60.5" cy="417.1" r="0.9"/>
	<circle class="st1" cx="17.4" cy="409.5" r="0.9"/>
	<circle class="st1" cx="1" cy="349.8" r="1.7"/>
	<circle class="st1" cx="42.3" cy="438.8" r="1.7"/>
	<circle class="st1" cx="27.8" cy="431.2" r="0.9"/>
	<circle class="st1" cx="-47" cy="393.3" r="0.9"/>
	<g>
		<g class="st2">
			<g>
				<path class="st3" d="M-15.5,453.8c-1.2,0.3-2.4,0-3.3-0.8l-33.1-28.6l-15.5,17c-1.4,1.5-3.7,1.6-5.2,0.2
					c-1.5-1.4-1.6-3.7-0.2-5.2l17.9-19.6c1.3-1.5,3.6-1.6,5.1-0.3l31.3,27.1l13.9-53.4c0.3-1.2,1.2-2.2,2.4-2.6
					c1.2-0.4,2.5-0.2,3.5,0.6l-0.2,9.3l-14,53.7c-0.3,1.2-1.3,2.2-2.5,2.6C-15.4,453.7-15.5,453.8-15.5,453.8z"/>
			</g>
		</g>
		<g>
			<path class="st4" d="M-16.7,449c-1.2,0.3-2.4,0-3.3-0.8l-33.1-28.6l-15.5,17c-1.4,1.5-3.7,1.6-5.2,0.2c-1.5-1.4-1.6-3.7-0.2-5.2
				l17.9-19.6c1.3-1.5,3.6-1.6,5.1-0.3l31.3,27.1l13.9-53.4c0.3-1.2,1.2-2.2,2.4-2.6c1.2-0.4,2.5-0.2,3.5,0.6l-0.2,9.3l-14,53.7
				c-0.3,1.2-1.3,2.2-2.5,2.6C-16.6,449-16.7,449-16.7,449z"/>
		</g>
	</g>
	<circle class="st1" cx="-0.9" cy="442.6" r="1.1"/>
	<g>
		<path class="st5" d="M-13.9,407.9c-0.3,1.3-1.7,2.1-3,1.8l0,0c-1.3-0.3-2.1-1.7-1.8-3l8-31.6c0.3-1.3,1.7-2.1,3-1.8l0,0
			c1.3,0.3,2.1,1.7,1.8,3L-13.9,407.9z"/>
		<path class="st5" d="M2.1,412c-0.3,1.3-1.7,2.1-3,1.8l0,0c-1.3-0.3-2.1-1.7-1.8-3l8-31.6c0.3-1.3,1.7-2.1,3-1.8l0,0
			c1.3,0.3,2.1,1.7,1.8,3L2.1,412z"/>
		<path class="st6" d="M-13.5,406.3c-0.3,1.3-1.7,2.1-3,1.8l0,0c-1.3-0.3-2.1-1.7-1.8-3l8-31.6c0.3-1.3,1.9-3.1,3.2-2.7l0,0
			c1.3,0.3,1.9,2.6,1.5,3.9L-13.5,406.3z"/>
		<path class="st6" d="M2.5,410.4c-0.3,1.3-1.7,2.1-3,1.8l0,0c-1.3-0.3-2.1-1.7-1.8-3l8-31.6c0.3-1.3,1.9-3.1,3.2-2.7l0,0
			c1.3,0.3,1.9,2.6,1.5,3.9L2.5,410.4z"/>
		<path class="st4" d="M-0.3,401.7c-0.8,3.1-4,5-7.1,4.2l0,0c-3.1-0.8-5-4-4.2-7.1l6.5-25.5c0.8-3.1,4.7-7.9,7.8-7.1l0,0
			c3.1,0.8,4.3,6.8,3.5,9.9L-0.3,401.7z"/>
		<path class="st5" d="M-4.7,408.4c-0.2,1.1-1.3,1.7-2.3,1.5l-11-2.3c-1.1-0.2-2.7-1.5-2.5-2.5l0.6-2.9c0.2-1.1,2.2-1.7,3.5-2.3
			c6.5-2.6,8.1-10.2,8.1-10.2c1.1,0.2,6.2,6.2,6,7.2L-4.7,408.4z"/>
		<path class="st5" d="M-9.5,407.4c-0.2,1.1,0.5,2.1,1.5,2.3L3,412c1.1,0.2,3-0.3,3.3-1.3l0.6-2.9c0.2-1.1-1.3-2.5-2.3-3.5
			c-4.9-5-3.3-12.6-3.3-12.6c-1.1-0.2-8.2,3.2-8.4,4.2L-9.5,407.4z"/>
		<path class="st5" d="M-3.9,412.2c-0.3,1.3-2.7,1.9-5.3,1.2l0,0c-2.6-0.7-4.5-2.3-4.1-3.6l7.3-28.8c0.3-1.3,3.8-6.1,6.4-5.4l0,0
			c2.6,0.7,3.4,6.5,3,7.8L-3.9,412.2z"/>
		<path class="st5" d="M-4.1,404.6c-0.2,1-1.3,1.7-2.3,1.5l-11-2.5c-1-0.2-2.7-1.5-2.4-2.5l0.6-2.9c0.2-1,2.2-1.7,3.5-2.2
			c6.6-2.5,8.3-10.1,8.3-10.1c1,0.2,6.1,6.3,5.9,7.3L-4.1,404.6z"/>
		<path class="st5" d="M-8.9,403.5c-0.2,1,0.4,2.1,1.5,2.3l11,2.5c1,0.2,3-0.2,3.3-1.3l0.6-2.9c0.2-1-1.3-2.5-2.2-3.5
			C0.4,395.6,2.1,388,2.1,388c-1-0.2-8.2,3-8.5,4.1L-8.9,403.5z"/>
		<g class="st2">
			<path class="st3" d="M-13.5,406.3l8-31.6c0.2-0.8,0.1-2-0.3-2.6l-9.1,35.9C-14.3,407.7-13.7,407.1-13.5,406.3z"/>
			<path class="st3" d="M5.8,377.6l-8,31.6c-0.2,0.8,0,1.6,0.5,2.1l9.1-35.9C6.7,375.7,6,376.8,5.8,377.6z"/>
		</g>
		<path class="st6" d="M-4.5,406.5c-0.2,1-1.3,1.7-2.3,1.5l-11-2.5c-1-0.2-2.7-1.5-2.4-2.5l0.6-2.9c0.2-1,2.2-1.7,3.5-2.2
			c6.6-2.5,8.3-10.1,8.3-10.1c1,0.2,6.1,6.3,5.9,7.3L-4.5,406.5z"/>
		<path class="st6" d="M-9.4,405.4c-0.2,1,0.4,2.1,1.5,2.3l11,2.5c1,0.2,3-0.2,3.3-1.3l0.6-2.9c0.2-1-1.3-2.5-2.2-3.5
			c-4.9-5.1-3.1-12.7-3.1-12.7c-1-0.2-8.2,3-8.5,4.1L-9.4,405.4z"/>
		<path class="st7" d="M-3.5,410.3c-0.3,1.3-2.7,1.9-5.3,1.2l0,0c-2.6-0.7-4.5-2.3-4.1-3.6l7.3-28.8c0.3-1.3,3.8-6.1,6.4-5.4l0,0
			c2.6,0.7,3.4,6.5,3,7.8L-3.5,410.3z"/>
	</g>
</g>
</svg>
