<?xml version="1.0" encoding="utf-8"?>
<!-- Generator: Adobe Illustrator 19.0.0, SVG Export Plug-In . SVG Version: 6.00 Build 0)  -->
<svg version="1.1" id="Layer_1" xmlns="http://www.w3.org/2000/svg" xmlns:xlink="http://www.w3.org/1999/xlink" x="0px" y="0px"
	 viewBox="-168 272 273.7 250" style="enable-background:new -168 272 273.7 250;" xml:space="preserve">
<style type="text/css">
	.st0{fill:#FFFB6E;}
	.st1{fill:#01354D;}
	.st2{fill:#FFFFFF;}
</style>
<g>
	<circle class="st0" cx="5.2" cy="335.1" r="0.9"/>
	<polygon class="st1" points="14.1,299 53.8,495 -116.1,481.5 	"/>
	<circle class="st0" cx="41" cy="469.6" r="1.7"/>
	<circle class="st0" cx="-4.2" cy="473.4" r="1.7"/>
	<circle class="st0" cx="7.9" cy="395.6" r="1.7"/>
	<circle class="st0" cx="31" cy="418.7" r="1.7"/>
	<circle class="st0" cx="8.2" cy="332.5" r="0.9"/>
	<circle class="st0" cx="-5" cy="378.3" r="0.9"/>
	<circle class="st0" cx="-32" cy="480.1" r="1.7"/>
	<circle class="st0" cx="-17.2" cy="362.7" r="1.7"/>
	<circle class="st0" cx="20.9" cy="467.6" r="1.7"/>
	<circle class="st0" cx="-25.5" cy="386.4" r="0.9"/>
	<circle class="st0" cx="-57" cy="425.1" r="0.9"/>
	<path class="st0" d="M-27.4,439.2c2.7,2.1,4.7,4.7,6.2,7.6c-8.9-3.6-19.5-1.1-25.8,6.8c-5.4,6.9-6.1,16.1-2.5,23.5
		c-1.9-0.7-3.7-1.8-5.4-3.1c-9.6-7.5-11.3-21.5-3.7-31.1S-37,431.7-27.4,439.2z"/>
	<g>
		<path class="st2" d="M-7.3,415.1c-0.4,0.3-0.6,1-0.5,1.6l1.1,4c0.1,0.5,0,1.2-0.3,1.7l-0.9,1.4c-0.3,0.5-0.9,0.9-1.4,1l-4.1,0.7
			c-0.5,0.1-1,0.6-1.2,1.1l-0.4,2.6c0,0.5,0.3,1.1,0.8,1.4l3.6,2c0.5,0.3,0.9,0.9,1,1.4l0.4,1.6c0.1,0.5,0,1.2-0.3,1.7l-2.4,3.4
			c-0.3,0.5-0.3,1.1-0.1,1.6c0,0,0.3,0.5,0.7,1.2c0.5,0.7,0.9,1.1,0.9,1.1c0.3,0.4,1,0.6,1.6,0.5l4-1.1c0.5-0.1,1.2,0,1.7,0.3
			l1.4,0.9c0.5,0.3,0.9,0.9,1,1.4l0.7,4.1c0.1,0.5,0.6,1,1.1,1.2l2.6,0.4c0.5,0,1.1-0.3,1.4-0.8l2-3.6c0.3-0.5,0.9-0.9,1.4-1
			l1.6-0.4c0.5-0.1,1.2,0,1.7,0.3l3.4,2.4c0.5,0.3,1.1,0.3,1.6,0.1c0,0,0.5-0.3,1.2-0.7c0.7-0.5,1.1-0.9,1.1-0.9
			c0.4-0.3,0.6-1,0.5-1.6l-1.1-4c-0.1-0.5,0-1.2,0.3-1.7l0.9-1.4c0.3-0.5,0.9-0.9,1.4-1l4.1-0.7c0.5-0.1,1-0.6,1.2-1.1l0.4-2.6
			c0-0.5-0.3-1.1-0.8-1.4l-3.6-2c-0.5-0.3-0.9-0.9-1-1.4l-0.4-1.6c-0.1-0.5,0-1.2,0.3-1.7l2.4-3.4c0.3-0.5,0.3-1.1,0.1-1.6
			c0,0-0.3-0.5-0.8-1.1c-0.5-0.7-0.9-1.1-0.9-1.1c-0.3-0.4-1-0.6-1.6-0.5l-4,1.1c-0.5,0.1-1.2,0-1.7-0.3l-1.4-0.9
			c-0.5-0.3-0.9-0.9-1-1.4l-0.7-4.1c-0.1-0.5-0.6-1-1.1-1.2L8,410.6c-0.5,0-1.1,0.3-1.4,0.8l-2,3.6c-0.3,0.5-0.9,0.9-1.4,1l-1.6,0.4
			c-0.5,0.1-1.2,0-1.7-0.3l-3.4-2.4c-0.5-0.3-1.1-0.3-1.6-0.1c0,0-0.5,0.3-1.1,0.8C-6.9,414.7-7.3,415.1-7.3,415.1z M13.5,425.8
			c3,4.2,2.1,10.2-2.2,13.2c-4.2,3-10.2,2.1-13.2-2.2c-3.1-4.3-2.1-10.2,2.2-13.2S10.5,421.6,13.5,425.8z"/>
	</g>
	<g>
		<path class="st2" d="M-32.4,395.3c-0.3,0.2-0.4,0.8-0.3,1.1l0.9,2.9c0.2,0.4,0.1,0.9-0.2,1.3l-0.6,1c-0.1,0.3-0.6,0.7-1.1,0.8
			l-3,0.6c-0.4,0-0.8,0.4-0.8,0.8l-0.3,2c-0.1,0.4,0.2,0.8,0.5,1l2.7,1.5c0.3,0.1,0.7,0.6,0.8,1.1l0.2,1.2c0.2,0.4,0.1,0.9-0.2,1.3
			l-1.8,2.5c-0.3,0.3-0.3,0.8,0,1.1c0,0,0.2,0.3,0.6,0.8c0.3,0.5,0.6,0.8,0.6,0.8c0.2,0.3,0.8,0.4,1.1,0.3l2.9-0.9
			c0.4-0.2,0.9-0.1,1.3,0.2l1,0.6c0.3,0.1,0.7,0.6,0.8,1.1l0.6,3c0,0.4,0.4,0.8,0.8,0.8l2,0.3c0.4,0.1,0.8-0.2,1-0.5l1.5-2.7
			c0.1-0.3,0.6-0.7,1.1-0.8l1.2-0.2c0.4-0.2,0.9-0.1,1.3,0.2l2.5,1.8c0.3,0.3,0.8,0.3,1.1,0c0,0,0.3-0.2,0.8-0.6s0.8-0.6,0.8-0.6
			c0.3-0.2,0.4-0.8,0.3-1.1l-0.9-2.9c-0.2-0.4-0.1-0.9,0.2-1.3l0.6-1c0.1-0.3,0.6-0.7,1.1-0.8l3-0.6c0.4,0,0.8-0.4,0.9-0.9l0.3-2
			c0.1-0.4-0.2-0.8-0.5-1l-2.7-1.5c-0.3-0.1-0.7-0.6-0.8-1.1l-0.2-1.2c-0.2-0.4-0.1-0.9,0.2-1.3l1.8-2.5c0.3-0.3,0.3-0.8,0-1.1
			c0,0-0.2-0.3-0.6-0.8c-0.3-0.5-0.6-0.8-0.6-0.8c-0.2-0.3-0.8-0.4-1.1-0.3l-2.9,0.9c-0.4,0.2-0.9,0.1-1.3-0.2l-1-0.6
			c-0.3-0.1-0.7-0.6-0.8-1.1l-0.6-3c0-0.4-0.4-0.8-0.9-0.9l-2-0.3c-0.4-0.1-0.8,0.2-1,0.5l-1.5,2.7c-0.1,0.3-0.6,0.7-1.1,0.8
			l-1.2,0.2c-0.4,0.2-0.9,0.1-1.3-0.2l-2.5-1.8c-0.3-0.3-0.8-0.3-1.1,0c0,0-0.3,0.2-0.8,0.6C-32.1,394.9-32.4,395.3-32.4,395.3z
			 M-17,403.2c2.3,3.2,1.5,7.5-1.7,9.8c-3.2,2.3-7.5,1.5-9.8-1.7c-2.3-3.2-1.5-7.5,1.7-9.8C-23.6,399.2-19.3,400-17,403.2z"/>
	</g>
	<circle class="st0" cx="-89.3" cy="465.1" r="0.9"/>
	<circle class="st0" cx="22.5" cy="485.3" r="0.9"/>
	<circle class="st0" cx="20.9" cy="374.2" r="0.9"/>
</g>
</svg>
